<?xml version="1.0" encoding="UTF-8" standalone="no"?>
<svg
   width="28.930019"
   height="28.529272"
   viewBox="0 0 28.93002 28.529272"
   fill="none"
   version="1.1"
   id="svg28"
   sodipodi:docname="add-molecule.svg"
   xml:space="preserve"
   inkscape:version="1.2.2 (b0a8486541, 2022-12-01)"
   xmlns:inkscape="http://www.inkscape.org/namespaces/inkscape"
   xmlns:sodipodi="http://sodipodi.sourceforge.net/DTD/sodipodi-0.dtd"
   xmlns="http://www.w3.org/2000/svg"
   xmlns:svg="http://www.w3.org/2000/svg"><defs
     id="defs32" /><sodipodi:namedview
     id="namedview30"
     pagecolor="#ffffff"
     bordercolor="#000000"
     borderopacity="0.25"
     inkscape:showpageshadow="2"
     inkscape:pageopacity="0.0"
     inkscape:pagecheckerboard="0"
     inkscape:deskcolor="#d1d1d1"
     showgrid="false"
     inkscape:zoom="27.928571"
     inkscape:cx="-4.797954"
     inkscape:cy="4.9411765"
     inkscape:window-width="1920"
     inkscape:window-height="1011"
     inkscape:window-x="0"
     inkscape:window-y="0"
     inkscape:window-maximized="1"
     inkscape:current-layer="g2576" /><path
     d="m 3.0417723,27 c -1.275,0 -2.18100003,-0.5685 -2.71800503,-1.7055 -0.537,-1.137 -0.406,-2.1935 0.393005,-3.1695 L 9.0417623,12 V 3 h -1.5 c -0.42499,0 -0.78099,-0.144 -1.06799,-0.432 -0.287,-0.288 -0.431,-0.644 -0.43201,-1.068 0,-0.425 0.14401,-0.781 0.43201,-1.068 0.288,-0.287 0.644,-0.431 1.06799,-0.432 H 19.541792 c 0.425,0 0.7815,0.144 1.0695,0.432 0.288,0.288 0.4315,0.644 0.4305,1.068 0,0.425 -0.144,0.7815 -0.432,1.0695 -0.288,0.288 -0.644,0.4315 -1.068,0.4305 h -1.5 v 9 l 8.325,10.125 c 0.8,0.975 0.9315,2.0315 0.3945,3.1695 -0.537,1.138 -1.4435,1.7065 -2.7195,1.7055 z m 0,-3 H 24.041792 l -9,-10.95 V 3 h -3 v 10.05 z"
     fill="#0096dc"
     id="path26" /><g
     style="fill:#0096dc;fill-opacity:1"
     id="g2576"
     transform="matrix(0.54841661,0,0,0.54841661,4.5562768,2.513756)"><circle
       style="fill:#ffffff;fill-opacity:1;stroke-width:2.79852"
       id="path3087"
       cx="28.832609"
       cy="31.826271"
       r="15.611236" /><path
       d="m 41.217013,33.31903 h -10.2857 v 10.2857 h -3.4286 v -10.2857 h -10.2857 v -3.4286 h 10.2857 v -10.2857 h 3.4286 v 10.2857 h 10.2857 z"
       fill="#0096dc"
       id="path2567"
       style="fill:#0096dc;fill-opacity:1" /></g></svg>
