<svg width="38" height="38" viewBox="0 0 38 38" fill="none" xmlns="http://www.w3.org/2000/svg">
<path d="M19 24.4001C22.1632 24.4001 24.7275 21.9824 24.7275 19.0001C24.7275 16.0178 22.1632 13.6001 19 13.6001C15.8368 13.6001 13.2725 16.0178 13.2725 19.0001C13.2725 21.9824 15.8368 24.4001 19 24.4001Z" stroke="#0096DC" stroke-width="1.5"/>
<path d="M22.3697 1.2736C21.669 1 20.7793 1 19 1C17.2207 1 16.331 1 15.6303 1.2736C15.1667 1.45452 14.7455 1.71981 14.3907 2.0543C14.036 2.38879 13.7546 2.78593 13.5627 3.223C13.387 3.6244 13.3164 4.0942 13.2897 4.7764C13.2778 5.26958 13.1331 5.75182 12.8693 6.17783C12.6055 6.60383 12.2311 6.95963 11.7814 7.2118C11.3249 7.45308 10.8109 7.58098 10.2876 7.5835C9.76425 7.58602 9.24884 7.46307 8.78976 7.2262C8.14828 6.9058 7.68435 6.7294 7.22424 6.6718C6.22063 6.54737 5.20568 6.80375 4.40249 7.3846C3.80301 7.822 3.35627 8.5474 2.46659 10C1.57692 11.4526 1.13018 12.178 1.03281 12.889C0.967201 13.3578 1.0002 13.8342 1.12992 14.291C1.25964 14.7478 1.48355 15.176 1.78884 15.5512C2.0714 15.8968 2.4666 16.1866 3.07944 16.5502C3.98248 17.0848 4.56286 17.9956 4.56286 19C4.56286 20.0044 3.98248 20.9152 3.07944 21.448C2.4666 21.8134 2.06949 22.1032 1.78884 22.4488C1.48355 22.824 1.25964 23.2522 1.12992 23.709C1.0002 24.1658 0.967201 24.6422 1.03281 25.111C1.13209 25.8202 1.57692 26.5474 2.46469 28C3.35627 29.4526 3.8011 30.178 4.40249 30.6154C4.80043 30.9032 5.25462 31.1143 5.73911 31.2366C6.2236 31.3589 6.72891 31.3901 7.22615 31.3282C7.68435 31.2706 8.14828 31.0942 8.78976 30.7738C9.24884 30.5369 9.76425 30.414 10.2876 30.4165C10.8109 30.419 11.3249 30.5469 11.7814 30.7882C12.7036 31.2922 13.2515 32.2192 13.2897 33.2236C13.3164 33.9076 13.3851 34.3756 13.5627 34.777C13.7546 35.2141 14.036 35.6112 14.3907 35.9457C14.7455 36.2802 15.1667 36.5455 15.6303 36.7264C16.331 37 17.2207 37 19 37C20.7793 37 21.669 37 22.3697 36.7264C22.8333 36.5455 23.2545 36.2802 23.6093 35.9457C23.964 35.6112 24.2454 35.2141 24.4373 34.777C24.613 34.3756 24.6836 33.9076 24.7103 33.2236C24.7485 32.2192 25.2964 31.2904 26.2186 30.7882C26.6751 30.5469 27.1891 30.419 27.7124 30.4165C28.2358 30.414 28.7512 30.5369 29.2102 30.7738C29.8517 31.0942 30.3156 31.2706 30.7738 31.3282C31.2711 31.3901 31.7764 31.3589 32.2609 31.2366C32.7454 31.1143 33.1996 30.9032 33.5975 30.6154C34.1989 30.1798 34.6437 29.4526 35.5334 28C36.4231 26.5474 36.8698 25.822 36.9672 25.111C37.0328 24.6422 36.9998 24.1658 36.8701 23.709C36.7404 23.2522 36.5165 22.824 36.2112 22.4488C35.9286 22.1032 35.5334 21.8134 34.9206 21.4498C34.4733 21.1935 34.1025 20.8342 33.843 20.4057C33.5835 19.9771 33.4439 19.4934 33.4371 19C33.4371 17.9956 34.0175 17.0848 34.9206 16.552C35.5334 16.1866 35.9305 15.8968 36.2112 15.5512C36.5165 15.176 36.7404 14.7478 36.8701 14.291C36.9998 13.8342 37.0328 13.3578 36.9672 12.889C36.8679 12.1798 36.4231 11.4526 35.5353 10C34.6437 8.5474 34.1989 7.822 33.5975 7.3846C33.1996 7.09676 32.7454 6.88566 32.2609 6.76336C31.7764 6.64106 31.2711 6.60994 30.7738 6.6718C30.3156 6.7294 29.8517 6.9058 29.2083 7.2262C28.7495 7.46275 28.2344 7.58552 27.7115 7.583C27.1885 7.58048 26.6748 7.45276 26.2186 7.2118C25.7689 6.95963 25.3945 6.60383 25.1307 6.17783C24.8669 5.75182 24.7222 5.26958 24.7103 4.7764C24.6836 4.0924 24.6149 3.6244 24.4373 3.223C24.2454 2.78593 23.964 2.38879 23.6093 2.0543C23.2545 1.71981 22.8333 1.45452 22.3697 1.2736Z" stroke="#0096DC" stroke-width="1.5"/>
</svg>
