<svg width="38" height="38" viewBox="0 0 38 38" fill="none" xmlns="http://www.w3.org/2000/svg">
<g clip-path="url(#clip0_186_593)">
<path d="M31.6667 7.91663C32.0866 7.91663 32.4893 8.08344 32.7863 8.38037C33.0832 8.67731 33.25 9.08003 33.25 9.49996C33.25 9.91989 33.0832 10.3226 32.7863 10.6195C32.4893 10.9165 32.0866 11.0833 31.6667 11.0833H30.0833L30.0786 11.1957L28.6013 31.8915C28.5445 32.6904 28.187 33.4381 27.6009 33.9839C27.0147 34.5298 26.2435 34.8333 25.4426 34.8333H12.5558C11.7549 34.8333 10.9837 34.5298 10.3976 33.9839C9.81145 33.4381 9.45395 32.6904 9.39708 31.8915L7.91983 11.1973C7.91743 11.1593 7.91638 11.1213 7.91667 11.0833H6.33333C5.91341 11.0833 5.51068 10.9165 5.21375 10.6195C4.91681 10.3226 4.75 9.91989 4.75 9.49996C4.75 9.08003 4.91681 8.67731 5.21375 8.38037C5.51068 8.08344 5.91341 7.91663 6.33333 7.91663H31.6667ZM26.9119 11.0833H11.0881L12.5574 31.6666H25.4426L26.9119 11.0833ZM22.1667 3.16663C22.5866 3.16663 22.9893 3.33344 23.2863 3.63037C23.5832 3.92731 23.75 4.33003 23.75 4.74996C23.75 5.16989 23.5832 5.57261 23.2863 5.86954C22.9893 6.16648 22.5866 6.33329 22.1667 6.33329H15.8333C15.4134 6.33329 15.0107 6.16648 14.7137 5.86954C14.4168 5.57261 14.25 5.16989 14.25 4.74996C14.25 4.33003 14.4168 3.92731 14.7137 3.63037C15.0107 3.33344 15.4134 3.16663 15.8333 3.16663H22.1667Z" fill="#FF3A00"/>
</g>
<defs>
<clipPath id="clip0_186_593">
<rect width="38" height="38" fill="white"/>
</clipPath>
</defs>
</svg>
