<svg width="36" height="36" viewBox="0 0 36 36" fill="none" xmlns="http://www.w3.org/2000/svg">
<path d="M25.11 32.1545L27.18 30.2727L24.3 27.6545L22.23 29.5364C21.81 29.9182 21.6 30.3545 21.6 30.8455C21.6 31.3364 21.81 31.7727 22.23 32.1545C22.65 32.5364 23.13 32.7273 23.67 32.7273C24.21 32.7273 24.69 32.5364 25.11 32.1545ZM29.7 27.9818L31.77 26.1C32.19 25.7182 32.4 25.2818 32.4 24.7909C32.4 24.3 32.19 23.8636 31.77 23.4818C31.35 23.1 30.87 22.9091 30.33 22.9091C29.79 22.9091 29.31 23.1 28.89 23.4818L26.82 25.3636L29.7 27.9818ZM27.675 34.4864C26.565 35.4955 25.23 36 23.67 36C22.11 36 20.775 35.4955 19.665 34.4864C18.555 33.4773 18 32.2636 18 30.8455C18 29.4273 18.555 28.2136 19.665 27.2045L26.325 21.15C27.435 20.1409 28.77 19.6364 30.33 19.6364C31.89 19.6364 33.225 20.1409 34.335 21.15C35.445 22.1591 36 23.3727 36 24.7909C36 26.2091 35.445 27.4227 34.335 28.4318L27.675 34.4864ZM3.6 32.7273C2.61 32.7273 1.7628 32.4071 1.0584 31.7667C0.354 31.1264 0.0012 30.3556 0 29.4545V6.54545C0 5.64545 0.3528 4.87527 1.0584 4.23491C1.764 3.59455 2.6112 3.27382 3.6 3.27273H11.16C11.55 2.29091 12.2028 1.5 13.1184 0.9C14.034 0.3 15.0612 0 16.2 0C17.34 0 18.3678 0.3 19.2834 0.9C20.199 1.5 20.8512 2.29091 21.24 3.27273H28.8C29.79 3.27273 30.6378 3.59345 31.3434 4.23491C32.049 4.87636 32.4012 5.64655 32.4 6.54545V16.5682C31.8 16.4318 31.2 16.3636 30.6 16.3636C30 16.3636 29.4 16.4045 28.8 16.4864V6.54545H3.6V29.4545H14.535C14.445 30 14.4 30.5455 14.4 31.0909C14.4 31.6364 14.475 32.1818 14.625 32.7273H3.6ZM16.2 5.31818C16.59 5.31818 16.9128 5.202 17.1684 4.96964C17.424 4.73727 17.5512 4.44436 17.55 4.09091C17.55 3.73636 17.4222 3.44345 17.1666 3.21218C16.911 2.98091 16.5888 2.86473 16.2 2.86364C15.81 2.86364 15.4878 2.97982 15.2334 3.21218C14.979 3.44455 14.8512 3.73745 14.85 4.09091C14.85 4.44545 14.9778 4.73891 15.2334 4.97127C15.489 5.20364 15.8112 5.31927 16.2 5.31818ZM7.2 13.0909V9.81818H25.2V13.0909H7.2ZM7.2 19.6364V16.3636H25.2V17.7545C24.96 17.8909 24.7278 18.048 24.5034 18.2258C24.279 18.4036 24.0462 18.6011 23.805 18.8182L22.905 19.6364H7.2ZM7.2 26.1818V22.9091H19.305L17.1 24.9136C16.86 25.1318 16.6428 25.3435 16.4484 25.5485C16.254 25.7536 16.0812 25.9647 15.93 26.1818H7.2Z" fill="#0096DC"/>
</svg>
