<svg width="32" height="31" viewBox="0 0 32 31" fill="none" xmlns="http://www.w3.org/2000/svg">
<path d="M16.3971 0C16.7699 0 17.1274 0.138281 17.391 0.384422C17.6545 0.630564 17.8026 0.964403 17.8026 1.3125C17.8026 1.6606 17.6545 1.99444 17.391 2.24058C17.1274 2.48672 16.7699 2.625 16.3971 2.625C12.7939 2.625 9.33815 3.96172 6.79024 6.34108C4.24234 8.72045 2.81094 11.9476 2.81094 15.3125C2.81094 18.6774 4.24234 21.9045 6.79024 24.2839C9.33815 26.6633 12.7939 28 16.3971 28C16.7699 28 17.1274 28.1383 17.391 28.3844C17.6545 28.6306 17.8026 28.9644 17.8026 29.3125C17.8026 29.6606 17.6545 29.9944 17.391 30.2406C17.1274 30.4867 16.7699 30.625 16.3971 30.625C12.0483 30.625 7.87767 29.0117 4.80261 26.1401C1.72755 23.2684 0 19.3736 0 15.3125C0 11.2514 1.72755 7.35658 4.80261 4.48493C7.87767 1.61328 12.0483 0 16.3971 0Z" fill="#8F8989"/>
<path d="M23.7028 10.9905C23.4546 10.7417 23.3194 10.4126 23.3258 10.0726C23.3323 9.73252 23.4798 9.4081 23.7373 9.16763C23.9948 8.92715 24.3422 8.78941 24.7063 8.78341C25.0704 8.77741 25.4228 8.90363 25.6892 9.13547L31.3111 14.3855C31.5743 14.6316 31.7221 14.9652 31.7221 15.313C31.7221 15.6608 31.5743 15.9944 31.3111 16.2405L25.6892 21.4905C25.5606 21.6194 25.4054 21.7228 25.233 21.7946C25.0606 21.8663 24.8745 21.9049 24.6858 21.908C24.4971 21.9111 24.3096 21.8787 24.1346 21.8127C23.9596 21.7467 23.8006 21.6484 23.6672 21.5238C23.5337 21.3991 23.4285 21.2507 23.3578 21.0873C23.2871 20.9238 23.2524 20.7488 23.2557 20.5726C23.2591 20.3963 23.3004 20.2225 23.3772 20.0615C23.454 19.9005 23.5647 19.7556 23.7028 19.6355L26.926 16.6255H11.5783C11.2056 16.6255 10.8481 16.4872 10.5845 16.241C10.3209 15.9949 10.1729 15.6611 10.1729 15.313C10.1729 14.9649 10.3209 14.631 10.5845 14.3849C10.8481 14.1387 11.2056 14.0005 11.5783 14.0005H26.926L23.7028 10.9905Z" fill="#8F8989"/>
</svg>
