<svg width="24" height="24" viewBox="0 0 24 24" fill="none" xmlns="http://www.w3.org/2000/svg">
<path fill-rule="evenodd" clip-rule="evenodd" d="M16 2.4C16 1.76348 16.4214 1.15303 17.1716 0.702943C17.9217 0.252856 18.9391 0 20 0C21.0609 0 22.0783 0.252856 22.8284 0.702943C23.5786 1.15303 24 1.76348 24 2.4V16.8C24 18.7096 22.7357 20.5409 20.4853 21.8912C18.2348 23.2414 15.1826 24 12 24C8.8174 24 5.76516 23.2414 3.51472 21.8912C1.26428 20.5409 0 18.7096 0 16.8C0 16.1635 0.421427 15.553 1.17157 15.1029C1.92172 14.6529 2.93913 14.4 4 14.4C5.06087 14.4 6.07828 14.6529 6.82843 15.1029C7.57857 15.553 8 16.1635 8 16.8C8 17.4365 8.42143 18.047 9.17157 18.4971C9.92172 18.9471 10.9391 19.2 12 19.2C13.0609 19.2 14.0783 18.9471 14.8284 18.4971C15.5786 18.047 16 17.4365 16 16.8V2.4ZM20 1.6C19.6464 1.6 19.3072 1.68429 19.0572 1.83431C18.8071 1.98434 18.6667 2.18783 18.6667 2.4V16.8C18.6667 17.8609 17.9643 18.8783 16.714 19.6284C15.4638 20.3786 13.7681 20.8 12 20.8C10.2319 20.8 8.5362 20.3786 7.28595 19.6284C6.03571 18.8783 5.33333 17.8609 5.33333 16.8C5.33333 16.5878 5.19286 16.3843 4.94281 16.2343C4.69276 16.0843 4.35362 16 4 16C3.64638 16 3.30724 16.0843 3.05719 16.2343C2.80714 16.3843 2.66667 16.5878 2.66667 16.8C2.66667 17.5354 2.90808 18.2636 3.37712 18.943C3.84617 19.6224 4.53366 20.2398 5.40034 20.7598C6.26702 21.2798 7.29592 21.6923 8.42829 21.9737C9.56066 22.2552 10.7743 22.4 12 22.4C13.2257 22.4 14.4393 22.2552 15.5717 21.9737C16.7041 21.6923 17.733 21.2798 18.5997 20.7598C19.4663 20.2398 20.1538 19.6224 20.6229 18.943C21.0919 18.2636 21.3333 17.5354 21.3333 16.8V2.4C21.3333 2.18783 21.1929 1.98434 20.9428 1.83431C20.6928 1.68429 20.3536 1.6 20 1.6Z" fill="#233368"/>
</svg>
