<svg width="39" height="44" viewBox="0 0 39 44" fill="none" xmlns="http://www.w3.org/2000/svg">
<path d="M6.5 23.8334C7.39375 23.8334 8.125 23.0084 8.125 22C8.125 20.9917 7.39375 20.1667 6.5 20.1667C5.60625 20.1667 4.875 20.9917 4.875 22C4.875 23.0084 5.60625 23.8334 6.5 23.8334ZM6.5 31.1667C7.39375 31.1667 8.125 30.3417 8.125 29.3334C8.125 28.325 7.39375 27.5 6.5 27.5C5.60625 27.5 4.875 28.325 4.875 29.3334C4.875 30.3417 5.60625 31.1667 6.5 31.1667ZM6.5 16.5C7.39375 16.5 8.125 15.675 8.125 14.6667C8.125 13.6584 7.39375 12.8334 6.5 12.8334C5.60625 12.8334 4.875 13.6584 4.875 14.6667C4.875 15.675 5.60625 16.5 6.5 16.5ZM13 23.8334H32.5C33.3937 23.8334 34.125 23.0084 34.125 22C34.125 20.9917 33.3937 20.1667 32.5 20.1667H13C12.1062 20.1667 11.375 20.9917 11.375 22C11.375 23.0084 12.1062 23.8334 13 23.8334ZM13 31.1667H32.5C33.3937 31.1667 34.125 30.3417 34.125 29.3334C34.125 28.325 33.3937 27.5 32.5 27.5H13C12.1062 27.5 11.375 28.325 11.375 29.3334C11.375 30.3417 12.1062 31.1667 13 31.1667ZM11.375 14.6667C11.375 15.675 12.1062 16.5 13 16.5H32.5C33.3937 16.5 34.125 15.675 34.125 14.6667C34.125 13.6584 33.3937 12.8334 32.5 12.8334H13C12.1062 12.8334 11.375 13.6584 11.375 14.6667ZM6.5 23.8334C7.39375 23.8334 8.125 23.0084 8.125 22C8.125 20.9917 7.39375 20.1667 6.5 20.1667C5.60625 20.1667 4.875 20.9917 4.875 22C4.875 23.0084 5.60625 23.8334 6.5 23.8334ZM6.5 31.1667C7.39375 31.1667 8.125 30.3417 8.125 29.3334C8.125 28.325 7.39375 27.5 6.5 27.5C5.60625 27.5 4.875 28.325 4.875 29.3334C4.875 30.3417 5.60625 31.1667 6.5 31.1667ZM6.5 16.5C7.39375 16.5 8.125 15.675 8.125 14.6667C8.125 13.6584 7.39375 12.8334 6.5 12.8334C5.60625 12.8334 4.875 13.6584 4.875 14.6667C4.875 15.675 5.60625 16.5 6.5 16.5ZM13 23.8334H32.5C33.3937 23.8334 34.125 23.0084 34.125 22C34.125 20.9917 33.3937 20.1667 32.5 20.1667H13C12.1062 20.1667 11.375 20.9917 11.375 22C11.375 23.0084 12.1062 23.8334 13 23.8334ZM13 31.1667H32.5C33.3937 31.1667 34.125 30.3417 34.125 29.3334C34.125 28.325 33.3937 27.5 32.5 27.5H13C12.1062 27.5 11.375 28.325 11.375 29.3334C11.375 30.3417 12.1062 31.1667 13 31.1667ZM11.375 14.6667C11.375 15.675 12.1062 16.5 13 16.5H32.5C33.3937 16.5 34.125 15.675 34.125 14.6667C34.125 13.6584 33.3937 12.8334 32.5 12.8334H13C12.1062 12.8334 11.375 13.6584 11.375 14.6667Z" fill="#0096DC"/>
</svg>
