<svg width="28" height="28" viewBox="0 0 28 28" fill="none" xmlns="http://www.w3.org/2000/svg">
<path d="M3.49978 27.5C2.22478 27.5 1.31878 26.9315 0.781775 25.7945C0.244775 24.6575 0.375775 23.601 1.17478 22.625L9.49977 12.5V3.5H7.99977C7.57478 3.5 7.21878 3.356 6.93178 3.068C6.64478 2.78 6.50078 2.424 6.49977 2C6.49977 1.575 6.64378 1.219 6.93178 0.932C7.21978 0.645 7.57578 0.501 7.99977 0.5H19.9998C20.4248 0.5 20.7813 0.644 21.0693 0.932C21.3573 1.22 21.5008 1.576 21.4998 2C21.4998 2.425 21.3558 2.7815 21.0678 3.0695C20.7798 3.3575 20.4238 3.501 19.9998 3.5H18.4998V12.5L26.8248 22.625C27.6248 23.6 27.7563 24.6565 27.2193 25.7945C26.6823 26.9325 25.7758 27.501 24.4998 27.5H3.49978ZM3.49978 24.5H24.4998L15.4998 13.55V3.5H12.4998V13.55L3.49978 24.5Z" fill="#233368"/>
</svg>
