<svg width="38" height="38" viewBox="0 0 38 38" fill="none" xmlns="http://www.w3.org/2000/svg">
<path d="M27.9995 18.9983C33.5225 18.9983 37.9995 14.7455 37.9995 9.49914C37.9995 4.25277 33.5225 0 27.9995 0C22.4765 0 17.9995 4.25277 17.9995 9.49914C17.9968 11.2397 18.4996 12.9473 19.4525 14.4339L14.0655 17.8432C12.9805 16.6447 11.529 15.7974 9.91319 15.4194C8.29737 15.0413 6.59767 15.1514 5.05077 15.7341C3.50387 16.3169 2.18679 17.3433 1.28293 18.6706C0.379066 19.9978 -0.0665787 21.5598 0.00805209 23.139C0.0826829 24.7182 0.673874 26.2359 1.6993 27.4809C2.72472 28.7259 4.13334 29.6361 5.72898 30.0849C7.32462 30.5336 9.02787 30.4985 10.6015 29.9845C12.1752 29.4704 13.5409 28.503 14.5085 27.2169L22.1905 30.8646C21.8171 32.2274 21.9879 33.6733 22.6702 34.9236C23.3525 36.1738 24.4979 37.1399 25.8856 37.6354C27.2732 38.131 28.8049 38.121 30.1853 37.6074C31.5657 37.0938 32.697 36.113 33.3612 34.854C34.0254 33.595 34.1753 32.1469 33.7822 30.7891C33.3891 29.4313 32.4807 28.2598 31.2321 27.5005C29.9836 26.7412 28.4834 26.4478 27.0206 26.677C25.5579 26.9062 24.2363 27.6416 23.3105 28.7416L15.6285 25.0939C15.8754 24.3512 16.0005 23.5768 15.9995 22.7979C16.0009 21.7906 15.7908 20.793 15.3815 19.8637L21.0155 16.2977C22.8815 18.0319 25.3891 19.0015 27.9995 18.9983ZM27.9995 16.6235C26.0104 16.6235 24.1028 15.8729 22.6962 14.5368C21.2897 13.2007 20.4995 11.3886 20.4995 9.49914C20.4995 7.60965 21.2897 5.79754 22.6962 4.46146C24.1028 3.12539 26.0104 2.37479 27.9995 2.37479C29.9887 2.37479 31.8963 3.12539 33.3028 4.46146C34.7094 5.79754 35.4995 7.60965 35.4995 9.49914C35.4995 11.3886 34.7094 13.2007 33.3028 14.5368C31.8963 15.8729 29.9887 16.6235 27.9995 16.6235ZM7.99955 28.0225C6.54086 28.0225 5.14191 27.472 4.11046 26.4922C3.07901 25.5125 2.49955 24.1836 2.49955 22.7979C2.49955 21.4123 3.07901 20.0834 4.11046 19.1036C5.14191 18.1239 6.54086 17.5734 7.99955 17.5734C9.45824 17.5734 10.8572 18.1239 11.8886 19.1036C12.9201 20.0834 13.4995 21.4123 13.4995 22.7979C13.4995 24.1836 12.9201 25.5125 11.8886 26.4922C10.8572 27.472 9.45824 28.0225 7.99955 28.0225ZM31.4995 32.2971C31.4995 33.1789 31.1308 34.0245 30.4744 34.648C29.818 35.2715 28.9278 35.6218 27.9995 35.6218C27.0713 35.6218 26.181 35.2715 25.5247 34.648C24.8683 34.0245 24.4995 33.1789 24.4995 32.2971C24.4995 31.4153 24.8683 30.5697 25.5247 29.9462C26.181 29.3227 27.0713 28.9724 27.9995 28.9724C28.9278 28.9724 29.818 29.3227 30.4744 29.9462C31.1308 30.5697 31.4995 31.4153 31.4995 32.2971Z" fill="white"/>
</svg>
