<svg width="36" height="36" viewBox="0 0 36 36" fill="none" xmlns="http://www.w3.org/2000/svg">
<rect width="36" height="36" fill="#F3F3F4" fill-opacity="0.31"/>
<path d="M17.25 31.5H6.75C6.35218 31.5 5.97064 31.342 5.68934 31.0607C5.40804 30.7794 5.25 30.3978 5.25 30V6C5.25 5.60218 5.40804 5.22064 5.68934 4.93934C5.97064 4.65804 6.35218 4.5 6.75 4.5H27.75C28.1478 4.5 28.5294 4.65804 28.8107 4.93934C29.092 5.22064 29.25 5.60218 29.25 6V14.625" stroke="#233368" stroke-opacity="0.87" stroke-width="4" stroke-linecap="round" stroke-linejoin="round"/>
<path d="M27.477 20.25C29.2845 20.25 30.75 21.66 30.75 23.4C30.75 25.665 28.5675 27.6 27.477 28.65C26.7495 29.3498 25.8413 30.0503 24.75 30.75C23.6595 30.0503 22.7498 29.3498 22.023 28.65C20.9318 27.6 18.75 25.665 18.75 23.4C18.75 21.66 20.2155 20.25 22.023 20.25C23.1608 20.25 24.1635 20.8095 24.75 21.6585C25.0567 21.2207 25.4651 20.8638 25.9401 20.6184C26.415 20.3731 26.9424 20.2467 27.477 20.25Z" stroke="#233368" stroke-opacity="0.87" stroke-width="4" stroke-linejoin="round"/>
<path d="M11.25 10.5H23.25" stroke="#233368" stroke-opacity="0.87" stroke-width="4" stroke-linecap="round"/>
</svg>
