<svg width="36" height="36" viewBox="0 0 36 36" fill="none" xmlns="http://www.w3.org/2000/svg">
<path fill-rule="evenodd" clip-rule="evenodd" d="M25.2644 1.64054C25.7349 -0.509177 28.7975 -0.522034 29.2887 1.62511L29.3092 1.72539L29.3555 1.92597C29.9212 4.32768 31.8652 6.16111 34.2978 6.58539C36.5401 6.97625 36.5401 10.1957 34.2978 10.5865C33.1016 10.7947 31.9936 11.3517 31.1129 12.1876C30.2322 13.0234 29.6182 14.1008 29.3478 15.2845L29.2861 15.5468C28.7975 17.694 25.7375 17.6811 25.2644 15.5314L25.2155 15.3051C24.9559 14.1168 24.3481 13.0327 23.4697 12.1914C22.5912 11.35 21.482 10.7895 20.2835 10.5814C18.0464 10.1931 18.0464 6.97882 20.2835 6.59054C21.4776 6.3833 22.5833 5.82618 23.4605 4.98981C24.3376 4.15343 24.9466 3.07546 25.2104 1.89254L25.2464 1.72282L25.2644 1.64054ZM27.1338 19.944C25.9085 19.9201 24.7375 19.4343 23.8552 18.5837C23.6613 18.7115 23.4923 18.8736 23.3564 19.062C22.1992 20.5945 20.8441 22.1605 19.3115 23.6905C18.1492 24.8528 16.9715 25.9097 15.8092 26.8534C14.6469 25.9097 13.4692 24.8528 12.3069 23.6905C11.1932 22.5791 10.1376 21.411 9.14409 20.1908C10.0878 19.026 11.1472 17.8508 12.3069 16.6885C13.755 15.2354 15.3015 13.8839 16.9355 12.6437C17.1061 12.5214 17.2556 12.372 17.3778 12.2014C16.889 11.7557 16.4974 11.2139 16.2275 10.61C15.9576 10.006 15.8152 9.35288 15.8092 8.69139C13.2867 6.92482 10.7924 5.61597 8.56551 4.93454C6.15351 4.19654 3.32494 3.99854 1.47094 5.84997C0.270086 7.05339 -0.0564851 8.68882 0.0360863 10.2445C0.128658 11.8028 0.650658 13.5154 1.44009 15.2537C2.24539 16.9833 3.2068 18.6359 4.31237 20.1908C3.20707 21.7441 2.24567 23.395 1.44009 25.1228C0.650658 26.8611 0.128658 28.5737 0.0360863 30.132C-0.0564851 31.6877 0.267515 33.3231 1.47094 34.5265C2.67437 35.7274 4.3098 36.054 5.86551 35.9614C7.42123 35.8662 9.13637 35.3468 10.8747 34.5574C12.4432 33.8451 14.1121 32.8731 15.8118 31.6851C17.5089 32.8731 19.1752 33.8451 20.7464 34.5574C22.4821 35.3468 24.1972 35.8688 25.7555 35.9614C27.3112 36.054 28.9441 35.7274 30.1475 34.524C32.0015 32.6725 31.8035 29.844 31.0655 27.432C30.3609 25.1331 28.9904 22.5488 27.1338 19.944ZM7.43666 8.62197C8.9178 9.07454 10.6844 9.9334 12.5975 11.178C10.5087 12.9501 8.56855 14.8903 6.79637 16.9791C6.09996 15.9187 5.48285 14.8082 4.95009 13.6568C4.2738 12.1654 3.94209 10.9311 3.88551 10.0131C3.83152 9.08997 4.0578 8.71968 4.19923 8.57825C4.43066 8.34682 5.28437 7.96625 7.43666 8.62197ZM4.95009 26.7223C5.42323 25.6808 6.04294 24.5623 6.79637 23.4C8.56941 25.4888 10.5105 27.429 12.6001 29.2011C11.5405 29.8983 10.4309 30.5162 9.28037 31.05C7.78894 31.7262 6.55466 32.058 5.63666 32.1145C4.71094 32.1685 4.34323 31.9422 4.2018 31.8008C4.06037 31.6594 3.83409 31.2865 3.88809 30.366C3.94466 29.448 4.2738 28.2137 4.95266 26.7223H4.95009ZM22.3407 31.05C21.1906 30.5169 20.0818 29.8989 19.0235 29.2011C21.1105 27.4287 23.049 25.4885 24.8195 23.4C26.0615 25.3157 26.9204 27.0823 27.3729 28.5634C28.0312 30.7131 27.6507 31.5694 27.4192 31.8008C27.2752 31.9422 26.9049 32.1685 25.9844 32.112C25.0638 32.0605 23.8321 31.7262 22.3407 31.05ZM13.2378 20.1908C13.2378 19.5088 13.5087 18.8548 13.991 18.3725C14.4732 17.8903 15.1272 17.6194 15.8092 17.6194C16.4912 17.6194 17.1453 17.8903 17.6275 18.3725C18.1097 18.8548 18.3807 19.5088 18.3807 20.1908C18.3807 20.8728 18.1097 21.5269 17.6275 22.0091C17.1453 22.4913 16.4912 22.7623 15.8092 22.7623C15.1272 22.7623 14.4732 22.4913 13.991 22.0091C13.5087 21.5269 13.2378 20.8728 13.2378 20.1908Z" fill="white"/>
</svg>
