<svg width="36" height="36" viewBox="0 0 36 36" fill="none" xmlns="http://www.w3.org/2000/svg">
<g clip-path="url(#clip0_638_132)">
<path fill-rule="evenodd" clip-rule="evenodd" d="M25.2642 1.64054C25.7348 -0.509177 28.7974 -0.522034 29.2885 1.62511L29.3091 1.72539L29.3554 1.92597C29.9211 4.32768 31.8651 6.16111 34.2977 6.58539C36.54 6.97625 36.54 10.1957 34.2977 10.5865C33.1015 10.7947 31.9935 11.3517 31.1128 12.1876C30.2321 13.0234 29.618 14.1008 29.3477 15.2845L29.286 15.5468C28.7974 17.694 25.7374 17.6811 25.2642 15.5314L25.2154 15.3051C24.9558 14.1168 24.348 13.0327 23.4695 12.1914C22.5911 11.35 21.4818 10.7895 20.2834 10.5814C18.0462 10.1931 18.0462 6.97882 20.2834 6.59054C21.4775 6.3833 22.5832 5.82618 23.4603 4.98981C24.3375 4.15343 24.9465 3.07546 25.2102 1.89254L25.2463 1.72282L25.2642 1.64054ZM27.1337 19.944C25.9084 19.9201 24.7374 19.4343 23.8551 18.5837C23.6612 18.7115 23.4922 18.8736 23.3563 19.062C22.1991 20.5945 20.844 22.1605 19.3114 23.6905C18.1491 24.8528 16.9714 25.9097 15.8091 26.8534C14.6468 25.9097 13.4691 24.8528 12.3068 23.6905C11.1931 22.5791 10.1374 21.411 9.14396 20.1908C10.0877 19.026 11.1471 17.8508 12.3068 16.6885C13.7549 15.2354 15.3014 13.8839 16.9354 12.6437C17.106 12.5214 17.2554 12.372 17.3777 12.2014C16.8888 11.7557 16.4972 11.2139 16.2273 10.61C15.9574 10.006 15.8151 9.35288 15.8091 8.69139C13.2865 6.92482 10.7922 5.61597 8.56539 4.93454C6.15339 4.19654 3.32482 3.99854 1.47082 5.84997C0.269964 7.05339 -0.0566072 8.68882 0.0359642 10.2445C0.128536 11.8028 0.650536 13.5154 1.43996 15.2537C2.24527 16.9833 3.20668 18.6359 4.31225 20.1908C3.20695 21.7441 2.24555 23.395 1.43996 25.1228C0.650536 26.8611 0.128536 28.5737 0.0359642 30.132C-0.0566072 31.6877 0.267393 33.3231 1.47082 34.5265C2.67425 35.7274 4.30968 36.054 5.86539 35.9614C7.42111 35.8662 9.13625 35.3468 10.8745 34.5574C12.4431 33.8451 14.112 32.8731 15.8117 31.6851C17.5088 32.8731 19.1751 33.8451 20.7463 34.5574C22.482 35.3468 24.1971 35.8688 25.7554 35.9614C27.3111 36.054 28.944 35.7274 30.1474 34.524C32.0014 32.6725 31.8034 29.844 31.0654 27.432C30.3608 25.1331 28.9902 22.5488 27.1337 19.944ZM7.43654 8.62197C8.91768 9.07454 10.6843 9.9334 12.5974 11.178C10.5086 12.9501 8.56843 14.8903 6.79625 16.9791C6.09984 15.9187 5.48273 14.8082 4.94996 13.6568C4.27368 12.1654 3.94196 10.9311 3.88539 10.0131C3.83139 9.08997 4.05768 8.71968 4.19911 8.57825C4.43054 8.34682 5.28425 7.96625 7.43654 8.62197ZM4.94996 26.7223C5.42311 25.6808 6.04282 24.5623 6.79625 23.4C8.56929 25.4888 10.5103 27.429 12.6 29.2011C11.5404 29.8983 10.4308 30.5162 9.28025 31.05C7.78882 31.7262 6.55453 32.058 5.63654 32.1145C4.71082 32.1685 4.34311 31.9422 4.20168 31.8008C4.06025 31.6594 3.83396 31.2865 3.88796 30.366C3.94454 29.448 4.27368 28.2137 4.95254 26.7223H4.94996ZM22.3405 31.05C21.1904 30.5169 20.0816 29.8989 19.0234 29.2011C21.1104 27.4287 23.0488 25.4885 24.8194 23.4C26.0614 25.3157 26.9203 27.0823 27.3728 28.5634C28.0311 30.7131 27.6505 31.5694 27.4191 31.8008C27.2751 31.9422 26.9048 32.1685 25.9842 32.112C25.0637 32.0605 23.832 31.7262 22.3405 31.05ZM13.2377 20.1908C13.2377 19.5088 13.5086 18.8548 13.9908 18.3725C14.4731 17.8903 15.1271 17.6194 15.8091 17.6194C16.4911 17.6194 17.1451 17.8903 17.6274 18.3725C18.1096 18.8548 18.3805 19.5088 18.3805 20.1908C18.3805 20.8728 18.1096 21.5269 17.6274 22.0091C17.1451 22.4913 16.4911 22.7623 15.8091 22.7623C15.1271 22.7623 14.4731 22.4913 13.9908 22.0091C13.5086 21.5269 13.2377 20.8728 13.2377 20.1908Z" fill="#8F8989" fill-opacity="0.64"/>
</g>
<defs>
<clipPath id="clip0_638_132">
<rect width="36" height="36" fill="white"/>
</clipPath>
</defs>
</svg>
