<svg width="24" height="24" viewBox="0 0 24 24" fill="none" xmlns="http://www.w3.org/2000/svg">
<path d="M22.9658 24L13.7923 14.8277C13.0599 15.4517 12.2175 15.9346 11.2653 16.2764C10.3131 16.6181 9.35604 16.789 8.39407 16.789C6.04822 16.789 4.06275 15.9771 2.43765 14.3531C0.81255 12.7282 0 10.7435 0 8.3989C0 6.05432 0.811572 4.0686 2.43472 2.44175C4.05884 0.813915 6.04334 0 8.38821 0C10.7341 0 12.7205 0.812451 14.3476 2.43735C15.9746 4.06225 16.7881 6.04797 16.7881 8.39451C16.7881 9.41202 16.6079 10.3968 16.2476 11.3489C15.8862 12.301 15.4126 13.1154 14.8266 13.7921L24 22.963L22.9658 24ZM8.39407 15.3228C10.3375 15.3228 11.9788 14.6539 13.3177 13.3161C14.6557 11.9783 15.3247 10.3373 15.3247 8.39304C15.3247 6.4498 14.6557 4.80928 13.3177 3.47147C11.9797 2.13366 10.339 1.46475 8.39553 1.46475C6.45205 1.46475 4.81084 2.13366 3.47189 3.47147C2.13392 4.80928 1.46493 6.4498 1.46493 8.39304C1.46493 10.3363 2.13392 11.9768 3.47189 13.3146C4.80986 14.6524 6.45059 15.3228 8.39407 15.3228Z" fill="#8F8989"/>
</svg>
