<svg width="36" height="36" viewBox="0 0 36 36" fill="none" xmlns="http://www.w3.org/2000/svg">
<path d="M33.0586 19.1878C32.7649 18.8594 32.6029 18.4372 32.6029 18C32.6029 17.5628 32.7649 17.1406 33.0586 16.8122L35.4038 14.2205C35.6622 13.9374 35.8227 13.5811 35.8622 13.2028C35.9017 12.8245 35.8182 12.4436 35.6236 12.1148L31.9593 5.88765C31.7668 5.55923 31.4736 5.29891 31.1216 5.14378C30.7695 4.98866 30.3766 4.94666 29.9989 5.02376L26.5544 5.70767C26.1161 5.79663 25.6599 5.72493 25.2717 5.5061C24.8835 5.28727 24.5903 4.93645 24.4474 4.51983L23.3298 1.22628C23.2069 0.868812 22.9727 0.558329 22.6604 0.338717C22.3481 0.119106 21.9734 0.00147363 21.5893 0.00244759H14.2606C13.861 -0.0180373 13.4657 0.0905031 13.1348 0.311491C12.804 0.532479 12.5559 0.853766 12.4284 1.22628L11.4024 4.51983C11.2595 4.93645 10.9663 5.28727 10.5781 5.5061C10.19 5.72493 9.7337 5.79663 9.29541 5.70767L5.75933 5.02376C5.40123 4.97406 5.03617 5.02956 4.71013 5.18329C4.38409 5.33702 4.11166 5.5821 3.92716 5.88765L0.262826 12.1148C0.0634132 12.4399 -0.0262493 12.8187 0.00665726 13.1969C0.0395639 13.5751 0.193355 13.9333 0.446043 14.2205L2.77289 16.8122C3.06663 17.1406 3.22862 17.5628 3.22862 18C3.22862 18.4372 3.06663 18.8594 2.77289 19.1878L0.446043 21.7795C0.193355 22.0667 0.0395639 22.4249 0.00665726 22.8031C-0.0262493 23.1813 0.0634132 23.5601 0.262826 23.8852L3.92716 30.1124C4.11972 30.4408 4.4129 30.7011 4.76492 30.8562C5.11694 31.0113 5.50983 31.0533 5.88758 30.9762L9.33205 30.2923C9.77034 30.2034 10.2266 30.2751 10.6148 30.4939C11.0029 30.7127 11.2961 31.0636 11.439 31.4802L12.5567 34.7737C12.6841 35.1462 12.9323 35.4675 13.2631 35.6885C13.5939 35.9095 13.9893 36.018 14.3888 35.9976H21.7175C22.1016 35.9985 22.4763 35.8809 22.7886 35.6613C23.101 35.4417 23.3351 35.1312 23.4581 34.7737L24.5757 31.4802C24.7186 31.0636 25.0118 30.7127 25.4 30.4939C25.7881 30.2751 26.2444 30.2034 26.6827 30.2923L30.1271 30.9762C30.5049 31.0533 30.8978 31.0113 31.2498 30.8562C31.6018 30.7011 31.895 30.4408 32.0876 30.1124L35.7519 23.8852C35.9464 23.5564 36.0299 23.1755 35.9904 22.7972C35.9509 22.4189 35.7905 22.0626 35.532 21.7795L33.0586 19.1878ZM30.3287 21.5995L31.7944 23.2193L29.4492 27.2147L27.2873 26.7828C25.9677 26.5178 24.5951 26.738 23.4298 27.4016C22.2646 28.0651 21.388 29.1258 20.9663 30.3823L20.2701 32.398H15.5797L14.9202 30.3463C14.4985 29.0898 13.6219 28.0291 12.4566 27.3656C11.2914 26.702 9.91875 26.4818 8.59919 26.7468L6.43723 27.1788L4.05541 23.2013L5.52115 21.5815C6.42249 20.5916 6.9208 19.3101 6.9208 17.982C6.9208 16.6539 6.42249 15.3724 5.52115 14.3825L4.05541 12.7627L6.40059 8.80325L8.56254 9.23519C9.88211 9.50016 11.2548 9.27997 12.42 8.61643C13.5852 7.9529 14.4619 6.8922 14.8835 5.63568L15.5797 3.60196H20.2701L20.9663 5.65368C21.388 6.91019 22.2646 7.97089 23.4298 8.63443C24.5951 9.29797 25.9677 9.51815 27.2873 9.25319L29.4492 8.82125L31.7944 12.8167L30.3287 14.4365C29.4375 15.4241 28.9453 16.6982 28.9453 18.018C28.9453 19.3378 29.4375 20.6119 30.3287 21.5995ZM17.9249 10.801C16.4754 10.801 15.0585 11.2232 13.8533 12.0142C12.6481 12.8053 11.7088 13.9296 11.1541 15.2451C10.5994 16.5605 10.4543 18.008 10.7371 19.4045C11.0198 20.8009 11.7178 22.0837 12.7428 23.0905C13.7677 24.0973 15.0735 24.7829 16.4952 25.0607C17.9168 25.3385 19.3903 25.1959 20.7295 24.651C22.0686 24.1062 23.2132 23.1834 24.0185 21.9996C24.8238 20.8157 25.2536 19.4238 25.2536 18C25.2536 16.0907 24.4815 14.2596 23.1071 12.9095C21.7327 11.5594 19.8686 10.801 17.9249 10.801ZM17.9249 21.5995C17.2002 21.5995 16.4917 21.3884 15.8891 20.9929C15.2865 20.5974 14.8169 20.0352 14.5395 19.3775C14.2622 18.7197 14.1896 17.996 14.331 17.2978C14.4724 16.5995 14.8214 15.9582 15.3338 15.4548C15.8463 14.9514 16.4992 14.6085 17.21 14.4697C17.9209 14.3308 18.6576 14.402 19.3272 14.6745C19.9968 14.9469 20.5691 15.4083 20.9717 16.0002C21.3743 16.5922 21.5893 17.2881 21.5893 18C21.5893 18.9546 21.2032 19.8702 20.516 20.5452C19.8288 21.2203 18.8968 21.5995 17.9249 21.5995Z" fill="#0096DC"/>
</svg>
