<svg width="38" height="38" viewBox="0 0 38 38" fill="none" xmlns="http://www.w3.org/2000/svg">
<path d="M19.4391 1H18.5609C17.5021 1 16.4866 1.37928 15.7379 2.05442C14.9893 2.72955 14.5687 3.64522 14.5687 4.6V4.924C14.5679 5.55531 14.3831 6.17534 14.0328 6.72191C13.6824 7.26847 13.1788 7.72235 12.5726 8.038L11.7142 8.488C11.1073 8.80397 10.4189 8.97031 9.71813 8.97031C9.01735 8.97031 8.32892 8.80397 7.72203 8.488L7.42261 8.344C6.50653 7.86747 5.4182 7.7382 4.39653 7.98455C3.37485 8.23091 2.50333 8.83276 1.97326 9.658L1.53412 10.342C1.00567 11.1681 0.862316 12.1495 1.13551 13.0708C1.40871 13.9921 2.07613 14.778 2.99127 15.256L3.29069 15.436C3.89406 15.7501 4.39577 16.2012 4.74594 16.7443C5.09612 17.2874 5.28258 17.9037 5.28679 18.532V19.45C5.28958 20.0844 5.10644 20.7081 4.75591 21.2581C4.40538 21.8081 3.89991 22.2648 3.29069 22.582L2.99127 22.744C2.07613 23.222 1.40871 24.0079 1.13551 24.9292C0.862316 25.8505 1.00567 26.8319 1.53412 27.658L1.97326 28.342C2.50333 29.1672 3.37485 29.7691 4.39653 30.0154C5.4182 30.2618 6.50653 30.1325 7.42261 29.656L7.72203 29.512C8.32892 29.196 9.01735 29.0297 9.71813 29.0297C10.4189 29.0297 11.1073 29.196 11.7142 29.512L12.5726 29.962C13.1788 30.2777 13.6824 30.7315 14.0328 31.2781C14.3831 31.8247 14.5679 32.4447 14.5687 33.076V33.4C14.5687 34.3548 14.9893 35.2705 15.7379 35.9456C16.4866 36.6207 17.5021 37 18.5609 37H19.4391C20.4979 37 21.5134 36.6207 22.2621 35.9456C23.0107 35.2705 23.4313 34.3548 23.4313 33.4V33.076C23.4321 32.4447 23.6169 31.8247 23.9672 31.2781C24.3176 30.7315 24.8212 30.2777 25.4274 29.962L26.2858 29.512C26.8927 29.196 27.5811 29.0297 28.2819 29.0297C28.9826 29.0297 29.6711 29.196 30.278 29.512L30.5774 29.656C31.4935 30.1325 32.5818 30.2618 33.6035 30.0154C34.6251 29.7691 35.4967 29.1672 36.0267 28.342L36.4659 27.64C36.9943 26.8139 37.1377 25.8325 36.8645 24.9112C36.5913 23.9899 35.9239 23.204 35.0087 22.726L34.7093 22.582C34.1001 22.2648 33.5946 21.8081 33.2441 21.2581C32.8936 20.7081 32.7104 20.0844 32.7132 19.45V18.55C32.7104 17.9156 32.8936 17.2919 33.2441 16.7419C33.5946 16.1919 34.1001 15.7352 34.7093 15.418L35.0087 15.256C35.9239 14.778 36.5913 13.9921 36.8645 13.0708C37.1377 12.1495 36.9943 11.1681 36.4659 10.342L36.0267 9.658C35.4967 8.83276 34.6251 8.23091 33.6035 7.98455C32.5818 7.7382 31.4935 7.86747 30.5774 8.344L30.278 8.488C29.6711 8.80397 28.9826 8.97031 28.2819 8.97031C27.5811 8.97031 26.8927 8.80397 26.2858 8.488L25.4274 8.038C24.8212 7.72235 24.3176 7.26847 23.9672 6.72191C23.6169 6.17534 23.4321 5.55531 23.4313 4.924V4.6C23.4313 3.64522 23.0107 2.72955 22.2621 2.05442C21.5134 1.37928 20.4979 1 19.4391 1Z" stroke="#0096DC" stroke-width="2" stroke-linecap="round" stroke-linejoin="round"/>
<path d="M19 24.4001C22.3073 24.4001 24.9883 21.9824 24.9883 19.0001C24.9883 16.0178 22.3073 13.6001 19 13.6001C15.6928 13.6001 13.0117 16.0178 13.0117 19.0001C13.0117 21.9824 15.6928 24.4001 19 24.4001Z" stroke="#0096DC" stroke-width="2" stroke-linecap="round" stroke-linejoin="round"/>
</svg>
