<svg width="36" height="36" viewBox="0 0 36 36" fill="none" xmlns="http://www.w3.org/2000/svg">
<path d="M4.04299 36C2.34832 36 1.1441 35.242 0.430339 33.726C-0.28342 32.21 -0.1093 30.8013 0.952698 29.5L12.0179 16V4H10.0242C9.45932 4 8.98614 3.808 8.60467 3.424C8.2232 3.04 8.0318 2.56533 8.03047 2C8.03047 1.43333 8.22187 0.958667 8.60467 0.576C8.98747 0.193334 9.46065 0.00133333 10.0242 0H25.9741C26.539 0 27.0129 0.192 27.3957 0.576C27.7785 0.96 27.9692 1.43467 27.9679 2C27.9679 2.56667 27.7765 3.042 27.3937 3.426C27.0109 3.81 26.5377 4.00133 25.9741 4H23.9804V16L35.0456 29.5C36.109 30.8 36.2837 32.2087 35.57 33.726C34.8562 35.2433 33.6513 36.0013 31.9553 36H4.04299ZM4.04299 32H31.9553L19.9929 17.4V4H16.0054V17.4L4.04299 32Z" fill="white"/>
</svg>
