<svg width="29" height="29" viewBox="0 0 29 29" fill="none" xmlns="http://www.w3.org/2000/svg">
<path d="M28.8356 26.4413C26.7142 22.7387 23.4451 20.0837 19.63 18.8251C21.5171 17.6909 22.9833 15.9626 23.8034 13.9057C24.6235 11.8488 24.7521 9.57701 24.1695 7.43917C23.5869 5.30133 22.3253 3.41566 20.5785 2.07175C18.8317 0.727842 16.6962 0 14.5 0C12.3038 0 10.1683 0.727842 8.42148 2.07175C6.67465 3.41566 5.41308 5.30133 4.8305 7.43917C4.24792 9.57701 4.37654 11.8488 5.19661 13.9057C6.01669 15.9626 7.48287 17.6909 9.37 18.8251C5.55488 20.0823 2.28578 22.7373 0.164411 26.4413C0.086617 26.5694 0.0350166 26.7119 0.0126546 26.8604C-0.00970738 27.0089 -0.00237804 27.1605 0.0342102 27.3061C0.0707984 27.4517 0.135905 27.5885 0.225687 27.7083C0.315469 27.8281 0.428109 27.9285 0.556961 28.0036C0.685813 28.0788 0.828267 28.1271 0.975918 28.1458C1.12357 28.1644 1.27343 28.153 1.41665 28.1123C1.55987 28.0715 1.69355 28.0022 1.80981 27.9084C1.92607 27.8147 2.02255 27.6983 2.09356 27.5663C4.71776 22.9876 9.35607 20.2538 14.5 20.2538C19.6439 20.2538 24.2822 22.9876 26.9064 27.5663C26.9775 27.6983 27.0739 27.8147 27.1902 27.9084C27.3065 28.0022 27.4401 28.0715 27.5834 28.1123C27.7266 28.153 27.8764 28.1644 28.0241 28.1458C28.1717 28.1271 28.3142 28.0788 28.443 28.0036C28.5719 27.9285 28.6845 27.8281 28.7743 27.7083C28.8641 27.5885 28.9292 27.4517 28.9658 27.3061C29.0024 27.1605 29.0097 27.0089 28.9873 26.8604C28.965 26.7119 28.9134 26.5694 28.8356 26.4413ZM6.69984 10.1288C6.69984 8.5713 7.15731 7.04875 8.0144 5.75371C8.87149 4.45867 10.0897 3.44931 11.515 2.85327C12.9403 2.25723 14.5087 2.10128 16.0217 2.40514C17.5348 2.709 18.9247 3.45902 20.0155 4.56036C21.1064 5.6617 21.8493 7.06489 22.1503 8.59249C22.4513 10.1201 22.2968 11.7035 21.7064 13.1425C21.116 14.5814 20.1163 15.8113 18.8335 16.6766C17.5508 17.542 16.0427 18.0038 14.5 18.0038C12.4319 18.0016 10.4492 17.1712 8.98689 15.6948C7.52456 14.2185 6.70205 12.2167 6.69984 10.1288Z" fill="white"/>
</svg>
