<svg width="30" height="29" viewBox="0 0 30 29" fill="none" xmlns="http://www.w3.org/2000/svg">
<path d="M29.1122 26.4413C26.9705 22.7387 23.67 20.0837 19.8183 18.8251C21.7236 17.6909 23.2038 15.9626 24.0318 13.9057C24.8597 11.8488 24.9896 9.57701 24.4014 7.43917C23.8132 5.30133 22.5395 3.41566 20.776 2.07175C19.0124 0.727842 16.8564 0 14.6391 0C12.4218 0 10.2659 0.727842 8.50227 2.07175C6.73869 3.41566 5.46501 5.30133 4.87684 7.43917C4.28867 9.57701 4.41853 11.8488 5.24647 13.9057C6.07441 15.9626 7.55466 17.6909 9.4599 18.8251C5.60818 20.0823 2.30771 22.7373 0.165989 26.4413C0.087448 26.5694 0.0353526 26.7119 0.012776 26.8604C-0.00980051 27.0089 -0.00240085 27.1605 0.0345384 27.3061C0.0714777 27.4517 0.137208 27.5885 0.227852 27.7083C0.318496 27.8281 0.432217 27.9285 0.562305 28.0036C0.692393 28.0788 0.836214 28.1271 0.985281 28.1458C1.13435 28.1644 1.28564 28.153 1.43024 28.1123C1.57483 28.0715 1.7098 28.0022 1.82717 27.9084C1.94455 27.8147 2.04196 27.6983 2.11364 27.5663C4.76302 22.9876 9.44583 20.2538 14.6391 20.2538C19.8324 20.2538 24.5152 22.9876 27.1646 27.5663C27.2363 27.6983 27.3337 27.8147 27.4511 27.9084C27.5684 28.0022 27.7034 28.0715 27.848 28.1123C27.9926 28.153 28.1439 28.1644 28.2929 28.1458C28.442 28.1271 28.5858 28.0788 28.7159 28.0036C28.846 27.9285 28.9597 27.8281 29.0504 27.7083C29.141 27.5885 29.2067 27.4517 29.2437 27.3061C29.2806 27.1605 29.288 27.0089 29.2654 26.8604C29.2429 26.7119 29.1908 26.5694 29.1122 26.4413ZM6.76411 10.1288C6.76411 8.5713 7.22597 7.04875 8.09129 5.75371C8.95661 4.45867 10.1865 3.44931 11.6255 2.85327C13.0644 2.25723 14.6479 2.10128 16.1755 2.40514C17.7031 2.709 19.1062 3.45902 20.2076 4.56036C21.3089 5.6617 22.0589 7.06489 22.3628 8.59249C22.6667 10.1201 22.5107 11.7035 21.9147 13.1425C21.3186 14.5814 20.3093 15.8113 19.0142 16.6766C17.7192 17.542 16.1966 18.0038 14.6391 18.0038C12.5512 18.0016 10.5495 17.1712 9.07311 15.6948C7.59675 14.2185 6.76635 12.2167 6.76411 10.1288Z" fill="#8F8989"/>
</svg>
