<svg xmlns="http://www.w3.org/2000/svg" viewBox="0 0 373.99 92.62"><defs><style>.cls-1{fill:#fff;}</style></defs><title>Simple Blanc_1</title><g id="Calque_2" data-name="Calque 2"><g id="Calque_1-2" data-name="Calque 1"><path class="cls-1" d="M91.87,76.37a14.74,14.74,0,0,0-1.34-4.32c-.46-1-1-2-1.52-3L56.4,9.38C53.74,4.5,50.92-.58,42.15.05A15.65,15.65,0,0,0,32,4.81a36.81,36.81,0,0,0-5.73,8.27c-1.48,2.85-3,5.53-4.54,8.39-.74,1.43-1.42,5.86-.12,6.82a3.48,3.48,0,0,0,2.14.45c2.85,0,6.43-2.12,8.78-.53,1.83,1.24,3,3.23,4.07,5.15L49.38,56c1.56,2.75,3.19,5.73,1,9.23a7.25,7.25,0,0,1-2.81,2.63c-3.94,2.05-8.52.68-11.77-2-2.2-1.78-3.9-4.1-6.05-5.93a18.47,18.47,0,0,0-18.59-3,18.27,18.27,0,0,0-.09,33.63,18.54,18.54,0,0,0,20.85-5.32c1.75-2.15,3-4.7,4.93-6.69a16.55,16.55,0,0,1,10-4.53c5.78-.68,12.12,1.19,15.66,5.82,1.93,2.53,2.94,5.69,5.08,8.05,4.52,5,13,4.6,18.4.58C89.75,85.7,92.46,81.05,91.87,76.37ZM23.14,83.71A10.36,10.36,0,1,1,30.86,76,10.26,10.26,0,0,1,23.14,83.71Z"/><path class="cls-1" d="M163.73,19.15a9.1,9.1,0,0,1-11.17,1.58,20.5,20.5,0,0,0-9.95-2.87c-5.34,0-12,1.82-12,8.63,0,5.71,5.11,7.54,13.25,10.09,11.67,3.76,26.74,8.75,26.74,25.88,0,19.81-15.93,28.68-32.94,28.68A49.94,49.94,0,0,1,115.31,86a9.31,9.31,0,0,1-2.41-14.81h0a9.36,9.36,0,0,1,11.78-1.23A24.79,24.79,0,0,0,137.63,74c6.32,0,11.91-2.43,11.91-9.36,0-6.56-6.56-8.63-17.86-12.27-10.94-3.53-22-9.12-22-24.67,0-19.08,17.26-27,33.3-27a44.52,44.52,0,0,1,17.83,3.86,9.09,9.09,0,0,1,2.92,14.56Z"/><path class="cls-1" d="M234.66,91.2c-28,0-47.07-16.31-47.07-45.2,0-26.78,20.55-45.34,47.82-45.34s47.45,18.44,47.45,45c0,13.45-6.73,23.79-13.08,28.65v.37l10-.2a8.38,8.38,0,0,1,8.55,8.38h0A8.38,8.38,0,0,1,280,91.2ZM235.41,20c-14.2,0-24.91,11-24.91,26.28C210.5,62.06,220.71,73,235.29,73s25-11,25-26.77C260.32,30.93,250.11,20,235.41,20Z"/><path class="cls-1" d="M348.37,81.49V12.12C348.37,6,354.1,1,361.18,1h0C368.26,1,374,6,374,12.12V81.49c0,6.15-5.73,11.13-12.81,11.13h0C354.1,92.62,348.37,87.64,348.37,81.49Z"/><path class="cls-1" d="M305.53,81.49V12.12C305.53,6,311.27,1,318.34,1h0c7.08,0,12.82,5,12.82,11.12V81.49c0,6.15-5.74,11.13-12.82,11.13h0C311.27,92.62,305.53,87.64,305.53,81.49Z"/></g></g></svg>