<svg xmlns="http://www.w3.org/2000/svg" viewBox="0 0 91.95 91.87"><defs><style>.cls-1{fill:#fff;}</style></defs><title>Mini Blanc_2</title><g id="Calque_2" data-name="Calque 2"><g id="Calque_1-2" data-name="Calque 1"><path class="cls-1" d="M91.87,76.37a14.74,14.74,0,0,0-1.34-4.32c-.46-1-1-2-1.52-3L56.4,9.38C53.74,4.5,50.92-.58,42.15.05A15.65,15.65,0,0,0,32,4.81a36.81,36.81,0,0,0-5.73,8.27c-1.48,2.85-3,5.53-4.54,8.39-.74,1.43-1.42,5.86-.12,6.82a3.48,3.48,0,0,0,2.14.45c2.85,0,6.43-2.12,8.78-.53,1.83,1.24,3,3.23,4.07,5.15L49.38,56c1.56,2.75,3.19,5.73,1,9.23a7.25,7.25,0,0,1-2.81,2.63c-3.94,2.05-8.52.68-11.77-2-2.2-1.78-3.9-4.1-6.05-5.93a18.47,18.47,0,0,0-18.59-3,18.27,18.27,0,0,0-.09,33.63,18.54,18.54,0,0,0,20.85-5.32c1.75-2.15,3-4.7,4.93-6.69a16.55,16.55,0,0,1,10-4.53c5.78-.68,12.12,1.19,15.66,5.82,1.93,2.53,2.94,5.69,5.08,8.05,4.52,5,13,4.6,18.4.58C89.75,85.7,92.46,81.05,91.87,76.37ZM23.14,83.71A10.36,10.36,0,1,1,30.86,76,10.26,10.26,0,0,1,23.14,83.71Z"/></g></g></svg>